<svg id="ac14994c-e725-447d-b0a8-9224d6b48849" data-name="Layer 1" xmlns="http://www.w3.org/2000/svg" xmlns:xlink="http://www.w3.org/1999/xlink" viewBox="0 0 864.6 463.3"><defs><style>.f0ec8bbc-a8cd-402c-b325-afb128bee44f{fill:url(#aa36a81a-526b-4cc2-9681-62d7b1b04267);}.e47c312b-c7d6-4314-9f0f-11b629fb3698{fill:url(#b396e1d9-91cc-4c08-ab5f-d7b8ccc29ea9);}.a3f62364-1809-4214-9a2c-26e31c27ffbb{fill:url(#f259793f-3bed-448d-9015-6548b498f2ba);}.fd97a0ee-b527-4bec-ba0a-8a02b29e1187{fill:url(#e9fc7f72-74e0-419f-a85d-cf716ae400fb);}.bbca1807-911d-4ba4-b591-5602b79eefe3{font-size:88.479px;fill:#6e53f6;font-family:UnicaOne-Regular, Unica One;}</style><linearGradient id="aa36a81a-526b-4cc2-9681-62d7b1b04267" x1="17.543" y1="192.086" x2="307.779" y2="192.086" gradientUnits="userSpaceOnUse"><stop offset="0.033" stop-color="#b429f9"/><stop offset="0.075" stop-color="#a638f8"/><stop offset="0.163" stop-color="#8d53f7"/><stop offset="0.252" stop-color="#7c66f7"/><stop offset="0.345" stop-color="#7171f6"/><stop offset="0.443" stop-color="#6e75f6"/><stop offset="1" stop-color="#26c5f3"/></linearGradient><linearGradient id="b396e1d9-91cc-4c08-ab5f-d7b8ccc29ea9" x1="34.207" y1="193.411" x2="313.306" y2="193.411" gradientUnits="userSpaceOnUse"><stop offset="0" stop-color="#b429f9"/><stop offset="0.051" stop-color="#a638f8"/><stop offset="0.158" stop-color="#8d53f7"/><stop offset="0.267" stop-color="#7c66f7"/><stop offset="0.38" stop-color="#7171f6"/><stop offset="0.499" stop-color="#6e75f6"/><stop offset="1" stop-color="#26c5f3"/></linearGradient><linearGradient id="f259793f-3bed-448d-9015-6548b498f2ba" x1="46" y1="192.081" x2="356.665" y2="192.081" gradientUnits="userSpaceOnUse"><stop offset="0" stop-color="#b429f9"/><stop offset="0.057" stop-color="#a638f8"/><stop offset="0.176" stop-color="#8d53f7"/><stop offset="0.297" stop-color="#7c66f7"/><stop offset="0.422" stop-color="#7171f6"/><stop offset="0.555" stop-color="#6e75f6"/><stop offset="1" stop-color="#26c5f3"/></linearGradient><linearGradient id="e9fc7f72-74e0-419f-a85d-cf716ae400fb" x1="57.747" y1="231.231" x2="404.057" y2="231.231" xlink:href="#b396e1d9-91cc-4c08-ab5f-d7b8ccc29ea9"/></defs><path class="f0ec8bbc-a8cd-402c-b325-afb128bee44f" d="M75.327,246.146V138.036a3.453,3.453,0,0,1,3.45-3.46h5.49a3.459,3.459,0,0,1,3.45,3.46v44.4a3.446,3.446,0,0,0,3.45,3.46h27.96a3.453,3.453,0,0,0,3.45-3.46v-44.4a3.453,3.453,0,0,1,3.45-3.46h5.48a3.453,3.453,0,0,1,3.45,3.46v108.11a3.444,3.444,0,0,1-3.45,3.45h-5.48a3.444,3.444,0,0,1-3.45-3.45v-46.18a3.459,3.459,0,0,0-3.45-3.46H91.167a3.453,3.453,0,0,0-3.45,3.46v46.18a3.45,3.45,0,0,1-3.45,3.45h-5.49A3.444,3.444,0,0,1,75.327,246.146Z"/><path class="e47c312b-c7d6-4314-9f0f-11b629fb3698" d="M168.577,227.476v-89.44a3.459,3.459,0,0,1,3.45-3.46h5.48a3.453,3.453,0,0,1,3.45,3.46v89.44q0,14.16,17.7,14.16,17.685,0,17.7-14.16v-89.44a3.453,3.453,0,0,1,3.45-3.46h5.48a3.453,3.453,0,0,1,3.45,3.46v89.44q0,11.865-7.52,18.32t-22.47,6.45q-14.955,0-22.56-6.45T168.577,227.476Z"/><path class="a3f62364-1809-4214-9a2c-26e31c27ffbb" d="M275.547,195.626h39.11a3.444,3.444,0,0,0,3.45-3.45V156.7q0-11.85-7.44-18.32-7.425-6.45-21.94-6.46t-21.76,6.46q-7.26,6.465-7.26,18.32v70.78q0,11.865,7.43,18.32t21.95,6.45q14.5,0,21.76-6.45t7.26-18.32V221.2a3.45,3.45,0,0,0-3.45-3.45h-5.49a3.457,3.457,0,0,0-3.45,3.45v6.28q0,14.16-16.81,14.16t-16.81-14.16v-28.39A3.459,3.459,0,0,1,275.547,195.626ZM272.1,156.7q0-14.145,16.81-14.16t16.81,14.16v24.86a3.444,3.444,0,0,1-3.45,3.45h-26.72a3.45,3.45,0,0,1-3.45-3.45Z"/><path class="fd97a0ee-b527-4bec-ba0a-8a02b29e1187" d="M404.057,203.236c0,111.09-90.06,201.15-201.15,201.15a200.578,200.578,0,0,1-145.16-61.9,200.481,200.481,0,0,0,138.96,55.71c111.11,0,201.16-90.05,201.16-201.16a200.5,200.5,0,0,0-55.71-138.96A200.578,200.578,0,0,1,404.057,203.236Z"/><text class="bbca1807-911d-4ba4-b591-5602b79eefe3" transform="translate(436.55 238.235)">SOLUTIONS</text></svg>